<svg width="60" height="60" viewBox="0 0 60 60" fill="none" xmlns="http://www.w3.org/2000/svg">
<path d="M56.4647 30.0002L30 56.465L3.53529 30.0002L30 3.53553L56.4647 30.0002Z" fill="#11052C" stroke="#9B4DF4" stroke-width="5"/>
<path d="M16.9249 24.0839L14.0001 25.6523V21.7101L24.0463 15.8604V46.5926L14.0848 40.8277V31.714L17.5184 29.7641V32.9857L16.9249 33.3672V39.2169L21.1638 41.7179V20.9047L16.9249 23.3209V24.0839Z" fill="black" stroke="black"/>
<path d="M32.4819 16.4962V17.3016L35.1948 18.9124V14.9702L30.2352 12.0453L25.3181 14.9702V34.766L32.3971 30.6966V45.8296L30.2352 47.0589L27.9886 45.8296V44.9394L25.1909 43.2862V47.4828L30.2352 50.3652L35.1948 47.4828V25.8642L27.9886 29.8912V16.4962L30.2352 15.2245L32.4819 16.4962Z" fill="black" stroke="black"/>
<path d="M43.5878 23.3209V24.3807L46.3431 25.9914V21.6677L36.2968 15.8604V46.5502L46.3007 40.8277V36.5464L43.5454 38.0724V39.1321L39.1369 41.5907V20.82L43.5878 23.3209Z" fill="black" stroke="black"/>
<path d="M16.6941 22.7637L13.7692 24.3321V20.3899L23.8155 14.5402V45.2724L13.854 39.5074V30.3937L17.2875 28.4438V31.6654L16.6941 32.0469V37.8966L20.933 40.3976V19.5845L16.6941 22.0007V22.7637Z" fill="#9B4DF4" stroke="black"/>
<path d="M32.251 15.176V15.9814L34.9639 17.5922V13.65L30.0043 10.7252L25.0872 13.65V33.4458L32.1662 29.3764V44.5094L30.0043 45.7387L27.7577 44.5094V43.6192L24.96 41.966V46.1626L30.0043 49.045L34.9639 46.1626V24.5441L27.7577 28.571V15.176L30.0043 13.9044L32.251 15.176Z" fill="#9B4DF4" stroke="black"/>
<path d="M43.3569 22.0007V23.0604L46.1122 24.6712V20.3475L36.066 14.5402V45.23L46.0698 39.5074V35.2261L43.3145 36.7521V37.8119L38.9061 40.2704V19.4997L43.3569 22.0007Z" fill="#9B4DF4" stroke="black"/>
</svg>
